<svg width="36" height="32" viewBox="0 0 36 32" fill="none" xmlns="http://www.w3.org/2000/svg">
<path d="M6.21488 9.21513L6.74521 8.6848L6.21488 9.21513ZM2.99999 6.00024L3.53032 5.46991L3.53032 5.46991L2.99999 6.00024ZM4.76845 29.4087L5.20929 28.802L5.20929 28.802L4.76845 29.4087ZM2.92485 27.5651L2.31809 28.006L2.31809 28.006L2.92485 27.5651ZM33.0751 27.5651L32.4684 27.1243L32.4684 27.1243L33.0751 27.5651ZM31.2315 29.4087L30.7907 28.802L30.7907 28.802L31.2315 29.4087ZM4.76845 2.59177L4.32761 1.98501L4.32761 1.98501L4.76845 2.59177ZM2.92485 4.43537L2.31809 3.99453L2.31809 3.99453L2.92485 4.43537ZM26.8523 13.1656C27.1513 12.879 27.1614 12.4042 26.8748 12.1052C26.5881 11.8062 26.1134 11.7961 25.8143 12.0828L26.8523 13.1656ZM35.4041 12.6149C35.3989 12.2007 35.059 11.8691 34.6449 11.8743C34.2307 11.8794 33.8991 12.2193 33.9042 12.6335L35.4041 12.6149ZM22.991 1.7622C23.4052 1.76717 23.745 1.43543 23.7499 1.02124C23.7549 0.60706 23.4232 0.267273 23.009 0.262308L22.991 1.7622ZM2.36838 5.36863L1.69272 5.04306L2.36838 5.36863ZM6.74521 8.6848L3.53032 5.46991L2.46966 6.53057L5.68455 9.74546L6.74521 8.6848ZM5.68455 9.74546C8.44734 12.5082 10.5717 14.6348 12.4414 16.0614C14.3285 17.5012 16.0442 18.2985 18 18.2985V16.7985C16.504 16.7985 15.1049 16.2069 13.3513 14.8689C11.5803 13.5177 9.53798 11.4776 6.74521 8.6848L5.68455 9.74546ZM16.3333 1.75024H19.6667V0.250244H16.3333V1.75024ZM19.6667 30.2502H16.3333V31.7502H19.6667V30.2502ZM16.3333 30.2502C13.1918 30.2502 10.896 30.2492 9.10955 30.0557C7.33715 29.8636 6.1554 29.4894 5.20929 28.802L4.32761 30.0155C5.57205 30.9196 7.04796 31.3411 8.94798 31.5469C10.834 31.7513 13.2253 31.7502 16.3333 31.7502V30.2502ZM0.583328 16.0002C0.583328 19.1083 0.582299 21.4996 0.786632 23.3856C0.992487 25.2856 1.41396 26.7615 2.31809 28.006L3.53162 27.1243C2.84422 26.1782 2.46993 24.9964 2.27791 23.224C2.08436 21.4376 2.08333 19.1417 2.08333 16.0002H0.583328ZM5.20929 28.802C4.56551 28.3342 3.99935 27.7681 3.53162 27.1243L2.31809 28.006C2.87835 28.7771 3.55648 29.4552 4.32761 30.0155L5.20929 28.802ZM33.9167 16.0002C33.9167 19.1417 33.9156 21.4376 33.7221 23.224C33.5301 24.9964 33.1558 26.1782 32.4684 27.1243L33.6819 28.006C34.586 26.7615 35.0075 25.2856 35.2134 23.3856C35.4177 21.4996 35.4167 19.1083 35.4167 16.0002H33.9167ZM19.6667 31.7502C22.7747 31.7502 25.166 31.7513 27.052 31.5469C28.952 31.3411 30.4279 30.9196 31.6724 30.0155L30.7907 28.802C29.8446 29.4894 28.6628 29.8636 26.8904 30.0557C25.104 30.2492 22.8081 30.2502 19.6667 30.2502V31.7502ZM32.4684 27.1243C32.0006 27.7681 31.4345 28.3342 30.7907 28.802L31.6724 30.0155C32.4435 29.4552 33.1216 28.7771 33.6819 28.006L32.4684 27.1243ZM16.3333 0.250244C13.2253 0.250244 10.834 0.249215 8.94798 0.453548C7.04796 0.659403 5.57205 1.08087 4.32761 1.98501L5.20929 3.19853C6.1554 2.51114 7.33715 2.13685 9.10955 1.94482C10.896 1.75127 13.1918 1.75024 16.3333 1.75024V0.250244ZM4.32761 1.98501C3.55649 2.54526 2.87835 3.2234 2.31809 3.99453L3.53162 4.87621C3.99935 4.23242 4.56551 3.66627 5.20929 3.19853L4.32761 1.98501ZM25.8143 12.0828C22.3664 15.3878 20.3145 16.7985 18 16.7985V18.2985C20.9923 18.2985 23.4507 16.4263 26.8523 13.1656L25.8143 12.0828ZM35.4167 16.0002C35.4167 14.7582 35.4167 13.6337 35.4041 12.6149L33.9042 12.6335C33.9166 13.6411 33.9167 14.7557 33.9167 16.0002H35.4167ZM19.6667 1.75024C20.8937 1.75024 21.9945 1.75025 22.991 1.7622L23.009 0.262308C22.0017 0.250234 20.8913 0.250244 19.6667 0.250244V1.75024ZM33.9167 4.33358C33.9167 5.76031 32.7601 6.91691 31.3333 6.91691V8.41691C33.5885 8.41691 35.4167 6.58874 35.4167 4.33358H33.9167ZM31.3333 6.91691C29.9066 6.91691 28.75 5.76031 28.75 4.33358H27.25C27.25 6.58874 29.0782 8.41691 31.3333 8.41691V6.91691ZM28.75 4.33358C28.75 2.90684 29.9066 1.75024 31.3333 1.75024V0.250244C29.0782 0.250244 27.25 2.07841 27.25 4.33358H28.75ZM31.3333 1.75024C32.7601 1.75024 33.9167 2.90684 33.9167 4.33358H35.4167C35.4167 2.07841 33.5885 0.250244 31.3333 0.250244V1.75024ZM2.08333 16.0002C2.08333 13.2822 2.08382 11.1939 2.21058 9.51598C2.33721 7.83984 2.58621 6.6443 3.04403 5.69419L1.69272 5.04306C1.11549 6.24099 0.846974 7.65397 0.714841 9.40298C0.582841 11.1502 0.583328 13.3038 0.583328 16.0002H2.08333ZM3.04403 5.69419C3.18467 5.40232 3.34601 5.13167 3.53162 4.87621L2.31809 3.99453C2.07843 4.3244 1.87131 4.67244 1.69273 5.04306L3.04403 5.69419ZM3.53032 5.46991L2.89871 4.8383L1.83805 5.89896L2.46966 6.53057L3.53032 5.46991Z" fill="white"/>
</svg>
