<svg width="30" height="34" viewBox="0 0 30 34" fill="none" xmlns="http://www.w3.org/2000/svg">
<path d="M8.63894 28.0003L9.3056 29.1431C12.3056 34.286 18.3056 34.286 21.3056 29.1431L21.9723 28.0003M2.27698 23.9163L2.44924 24.2714C3.55552 26.5521 5.86756 28.0003 8.4024 28.0003H22.1038C24.2759 28.0003 26.2976 26.8906 27.4638 25.058C29.1102 22.4713 28.6741 19.0777 26.4273 16.9912L26.3542 16.9232C24.8287 15.5066 24.0777 13.4427 24.3359 11.3769L24.4436 10.5154C25.053 5.63994 21.2515 1.33362 16.3381 1.33362H13.4999C8.59252 1.33362 4.79562 5.63469 5.40431 10.5042L5.53657 11.5623C5.78013 13.5108 5.06837 15.4571 3.62523 16.7888C1.65403 18.6078 1.10638 21.503 2.27698 23.9163Z" stroke="white" stroke-width="1.5" stroke-linecap="round"/>
</svg>
