<svg width="24" height="24" viewBox="0 0 24 24" fill="none" xmlns="http://www.w3.org/2000/svg">
<path d="M6.29367 4.9658C8.96048 3.02825 10.2939 2.05947 11.8167 2.00361C11.9389 1.99912 12.0611 1.99912 12.1833 2.00361C13.7061 2.05947 15.0395 3.02825 17.7063 4.9658C20.3732 6.90336 21.7066 7.87214 22.2303 9.30315C22.2723 9.41795 22.3101 9.53425 22.3436 9.65181C22.761 11.1174 22.2517 12.6849 21.2331 15.8199L19.512 21.1167C19.2386 21.9583 18.4543 22.5281 17.5694 22.5281C16.4412 22.5281 15.5267 21.6136 15.5267 20.4855V17.7365C15.5267 16.678 14.6686 15.8199 13.6101 15.8199H10.3899C9.3314 15.8199 8.47329 16.678 8.47329 17.7365V20.4855C8.47329 21.6136 7.55877 22.5281 6.43065 22.5281C5.54572 22.5281 4.76144 21.9583 4.48798 21.1167L2.76696 15.8199C1.74832 12.6849 1.23901 11.1174 1.65645 9.65181C1.68994 9.53425 1.72773 9.41795 1.76974 9.30315C2.29344 7.87214 3.62685 6.90336 6.29367 4.9658Z" stroke="white" stroke-width="1.5"/>
</svg>
