<svg width="24" height="24" viewBox="0 0 24 24" fill="none" xmlns="http://www.w3.org/2000/svg">
<g clip-path="url(#clip0_99_195)">
<path d="M19.5304 17.47C19.2375 17.1771 18.7626 17.1771 18.4697 17.47C18.1768 17.7629 18.1768 18.2378 18.4697 18.5307L19.5304 17.47ZM22.4696 22.5306C22.7625 22.8235 23.2374 22.8235 23.5303 22.5306C23.8232 22.2377 23.8232 21.7629 23.5303 21.47L22.4696 22.5306ZM18.4697 18.5307L22.4696 22.5306L23.5303 21.47L19.5304 17.47L18.4697 18.5307ZM11 18.2502C6.44365 18.2502 2.75 14.5566 2.75 10.0002H1.25C1.25 15.385 5.61522 19.7502 11 19.7502V18.2502ZM19.25 10.0002C19.25 14.5566 15.5563 18.2502 11 18.2502V19.7502C16.3848 19.7502 20.75 15.385 20.75 10.0002H19.25ZM11 1.75024C15.5563 1.75024 19.25 5.4439 19.25 10.0002H20.75C20.75 4.61547 16.3848 0.250244 11 0.250244V1.75024ZM11 0.250244C5.61522 0.250244 1.25 4.61547 1.25 10.0002H2.75C2.75 5.4439 6.44365 1.75024 11 1.75024V0.250244Z" fill="white"/>
</g>
<defs>
<clipPath id="clip0_99_195">
<rect width="24" height="24" fill="white" transform="translate(0 0.000244141)"/>
</clipPath>
</defs>
</svg>
